<svg fill="none" height="11" viewBox="0 0 86 11" width="86"
  xmlns="http://www.w3.org/2000/svg">
  <g fill="#ec591f">
    <path
      d="m.516113 5.79997 3.695997-3.696.252.252-3.444 3.444 3.444 3.444-.252.252z" />
    <path
      d="m10.3006 9.26797c-.43199-.568-.64799-1.484-.64799-2.748s.216-2.18.64799-2.748c.432-.568 1.148-.852 2.148-.852s1.72.276 2.16.828l-.264.24c-.352-.472-.984-.708-1.896-.708-.4 0-.736.044-1.008.132-.272.08-.524.236-.756.468-.224.224-.392.556-.504.996-.112.432-.168.98-.168 1.644s.056 1.216.168 1.656c.112.432.28.764.504.996.232.224.484.38.756.468.272.08.608.12 1.008.12.912 0 1.544-.236 1.896-.708l.264.24c-.44.552-1.16.82803-2.16.82803s-1.716-.28403-2.148-.85203z" />
    <path d="m16.3979 3.03997h.36v6.96h-.36z" />
    <path
      d="m19.6706 9.63997h3.912l-2.46-5.796-2.616 6.156h-.384l3-7.08 3 7.08h-4.452z" />
    <path
      d="m28.4197 6.50797 1.632 3.492h-.396l-1.68-3.6c.016-.008.084-.04.204-.096.128-.064.216-.108.264-.132.048-.032.128-.084.24-.156s.196-.14.252-.204c.056-.072.116-.152.18-.24.072-.096.124-.2.156-.312.032-.12.048-.248.048-.384 0-.504-.24-.876-.72-1.116s-1.076-.36-1.788-.36h-.96v6.6h-.36v-6.96h1.32c.944 0 1.656.164 2.136.492.488.328.732.776.732 1.344 0 .368-.124.696-.372.984-.248.28-.544.496-.888.648z" />
    <path
      d="m32.3152 9.63997h3.912l-2.46-5.796-2.616 6.156h-.384l3-7.08 3 7.08h-4.452z" />
    <path
      d="m38.1362 9.99997v-6.96h.36l3.912 6.3v-6.3h.36v6.96h-.36l-3.912-6.312v6.312z" />
    <path d="m49.5503 3.03997v.36h-2.52v6.6h-.36v-6.6h-2.52v-.36z" />
    <path d="m50.7411 9.30397h.792v.696h-.792z" />
    <path
      d="m54.5287 9.99997h-.912v-6.96h.912c1.184 0 2.128.312 2.832.936s1.056 1.472 1.056 2.544-.352 1.92-1.056 2.544-1.648.936-2.832.936zm0-.36c1.08 0 1.936-.276 2.568-.828.64-.552.96-1.316.96-2.292s-.32-1.74-.96-2.292c-.632-.552-1.488-.828-2.568-.828h-.552v6.24z" />
    <path
      d="m64.9055 9.29197c-.44.552-1.16.82803-2.16.82803s-1.716-.28403-2.148-.85203-.648-1.484-.648-2.748.216-2.18.648-2.748 1.148-.852 2.148-.852c1.16 0 1.948.38 2.364 1.14l-2.94 2.46h-.564l3.036-2.532c-.352-.472-.984-.708-1.896-.708-.4 0-.736.044-1.008.132-.272.08-.524.236-.756.468-.224.224-.392.556-.504.996-.112.432-.168.98-.168 1.644s.056 1.216.168 1.656c.112.432.28.764.504.996.232.224.484.38.756.468.272.08.608.12 1.008.12.912 0 1.544-.236 1.896-.708z" />
    <path
      d="m71.8997 3.03997-3 7.08003-3-7.08003h.384l2.616 6.156 2.616-6.156z" />
    <path d="m76.4484 10.432-.324-.132 3.684-9.13203.324.132z" />
    <path
      d="m85.342 5.79997-3.696 3.696-.252-.252 3.444-3.444-3.444-3.444.252-.252z" />
  </g>
  <path
    d="m.516113 5.79997 3.695997-3.696.252.252-3.444 3.444 3.444 3.444-.252.252z"
    stroke="#ec591f" stroke-width=".4" />
  <path
    d="m10.3006 9.26797c-.43199-.568-.64799-1.484-.64799-2.748s.216-2.18.64799-2.748c.432-.568 1.148-.852 2.148-.852s1.72.276 2.16.828l-.264.24c-.352-.472-.984-.708-1.896-.708-.4 0-.736.044-1.008.132-.272.08-.524.236-.756.468-.224.224-.392.556-.504.996-.112.432-.168.98-.168 1.644s.056 1.216.168 1.656c.112.432.28.764.504.996.232.224.484.38.756.468.272.08.608.12 1.008.12.912 0 1.544-.236 1.896-.708l.264.24c-.44.552-1.16.82803-2.16.82803s-1.716-.28403-2.148-.85203z"
    stroke="#ec591f" stroke-width=".4" />
  <path d="m16.3979 3.03997h.36v6.96h-.36z" stroke="#ec591f"
    stroke-width=".4" />
  <path
    d="m19.6706 9.63997h3.912l-2.46-5.796-2.616 6.156h-.384l3-7.08 3 7.08h-4.452z"
    stroke="#ec591f" stroke-width=".4" />
  <path
    d="m28.4197 6.50797 1.632 3.492h-.396l-1.68-3.6c.016-.008.084-.04.204-.096.128-.064.216-.108.264-.132.048-.032.128-.084.24-.156s.196-.14.252-.204c.056-.072.116-.152.18-.24.072-.096.124-.2.156-.312.032-.12.048-.248.048-.384 0-.504-.24-.876-.72-1.116s-1.076-.36-1.788-.36h-.96v6.6h-.36v-6.96h1.32c.944 0 1.656.164 2.136.492.488.328.732.776.732 1.344 0 .368-.124.696-.372.984-.248.28-.544.496-.888.648z"
    stroke="#ec591f" stroke-width=".4" />
  <path
    d="m32.3152 9.63997h3.912l-2.46-5.796-2.616 6.156h-.384l3-7.08 3 7.08h-4.452z"
    stroke="#ec591f" stroke-width=".4" />
  <path
    d="m38.1362 9.99997v-6.96h.36l3.912 6.3v-6.3h.36v6.96h-.36l-3.912-6.312v6.312z"
    stroke="#ec591f" stroke-width=".4" />
  <path d="m49.5503 3.03997v.36h-2.52v6.6h-.36v-6.6h-2.52v-.36z"
    stroke="#ec591f" stroke-width=".4" />
  <path d="m50.7411 9.30397h.792v.696h-.792z" stroke="#ec591f"
    stroke-width=".4" />
  <path
    d="m54.5287 9.99997h-.912v-6.96h.912c1.184 0 2.128.312 2.832.936s1.056 1.472 1.056 2.544-.352 1.92-1.056 2.544-1.648.936-2.832.936zm0-.36c1.08 0 1.936-.276 2.568-.828.64-.552.96-1.316.96-2.292s-.32-1.74-.96-2.292c-.632-.552-1.488-.828-2.568-.828h-.552v6.24z"
    stroke="#ec591f" stroke-width=".4" />
  <path
    d="m64.9055 9.29197c-.44.552-1.16.82803-2.16.82803s-1.716-.28403-2.148-.85203-.648-1.484-.648-2.748.216-2.18.648-2.748 1.148-.852 2.148-.852c1.16 0 1.948.38 2.364 1.14l-2.94 2.46h-.564l3.036-2.532c-.352-.472-.984-.708-1.896-.708-.4 0-.736.044-1.008.132-.272.08-.524.236-.756.468-.224.224-.392.556-.504.996-.112.432-.168.98-.168 1.644s.056 1.216.168 1.656c.112.432.28.764.504.996.232.224.484.38.756.468.272.08.608.12 1.008.12.912 0 1.544-.236 1.896-.708z"
    stroke="#ec591f" stroke-width=".4" />
  <path d="m71.8997 3.03997-3 7.08003-3-7.08003h.384l2.616 6.156 2.616-6.156z"
    stroke="#ec591f" stroke-width=".4" />
  <path d="m76.4484 10.432-.324-.132 3.684-9.13203.324.132z" stroke="#ec591f"
    stroke-width=".4" />
  <path
    d="m85.342 5.79997-3.696 3.696-.252-.252 3.444-3.444-3.444-3.444.252-.252z"
    stroke="#ec591f" stroke-width=".4" />
</svg>